<svg xmlns="http://www.w3.org/2000/svg" xmlns:xlink="http://www.w3.org/1999/xlink" width="1080" zoomAndPan="magnify" viewBox="0 0 810 1012.49997" height="1350" preserveAspectRatio="xMidYMid meet" version="1.0"><defs><g/></defs><g fill="#f6f2d8" fill-opacity="1"><g transform="translate(165.698955, 463.413722)"><g><path d="M 63.890625 4.203125 C 25.148438 4.203125 5.78125 -14.898438 5.78125 -53.109375 L 5.78125 -306.609375 C 5.78125 -324.484375 10.6875 -338.15625 20.5 -347.625 C 30.320312 -357.09375 44.785156 -361.828125 63.890625 -361.828125 C 102.640625 -361.828125 122.015625 -342.804688 122.015625 -304.765625 L 122.015625 -53.109375 C 122.015625 -14.898438 102.640625 4.203125 63.890625 4.203125 Z M 64.15625 -33.65625 C 69.070312 -33.65625 71.53125 -36.195312 71.53125 -41.28125 L 71.53125 -316.328125 C 71.53125 -321.410156 69.070312 -323.953125 64.15625 -323.953125 C 59.070312 -323.953125 56.53125 -321.410156 56.53125 -316.328125 L 56.53125 -41.28125 C 56.53125 -36.195312 59.070312 -33.65625 64.15625 -33.65625 Z M 64.15625 -33.65625 "/></g></g><g transform="translate(293.493827, 463.413722)"><g><path d="M 72.046875 -210.625 C 101.671875 -210.101562 116.484375 -196.867188 116.484375 -170.921875 L 116.484375 -41.015625 C 116.484375 -25.585938 111.660156 -14.148438 102.015625 -6.703125 C 92.378906 0.742188 77.484375 4.46875 57.328125 4.46875 C 39.796875 4.46875 26.820312 0.917969 18.40625 -6.171875 C 9.988281 -13.273438 5.78125 -24.101562 5.78125 -38.65625 C 5.78125 -38.832031 5.78125 -40.582031 5.78125 -43.90625 C 5.78125 -47.238281 5.78125 -51.625 5.78125 -57.0625 C 5.78125 -62.5 5.78125 -68.195312 5.78125 -74.15625 C 5.78125 -80.113281 5.78125 -85.851562 5.78125 -91.375 C 5.78125 -96.894531 5.820312 -101.492188 5.90625 -105.171875 C 6 -108.859375 6.046875 -110.878906 6.046875 -111.234375 L 52.59375 -111.234375 L 52.59375 -41.015625 C 52.59375 -33.828125 55.046875 -30.234375 59.953125 -30.234375 C 64.859375 -30.234375 67.3125 -33.566406 67.3125 -40.234375 L 67.3125 -170.125 C 67.3125 -177.144531 63.804688 -180.65625 56.796875 -180.65625 L 14.984375 -180.65625 L 8.15625 -191.171875 L 14.203125 -357.625 L 109.390625 -357.625 L 109.390625 -280.046875 L 71.53125 -280.046875 L 71.53125 -321.859375 L 56.796875 -321.859375 L 56.796875 -210.890625 Z M 72.046875 -210.625 "/></g></g><g transform="translate(416.292599, 463.413722)"><g><path d="M 22.34375 0 L 22.34375 -317.65625 L 1.578125 -317.65625 L 1.578125 -357.625 L 95.1875 -357.625 L 95.1875 -317.65625 L 74.421875 -317.65625 L 74.421875 0 Z M 22.34375 0 "/></g></g><g transform="translate(513.322036, 463.413722)"><g><path d="M 6.84375 0 L 6.84375 -357.625 L 58.109375 -357.625 L 58.109375 -196.421875 L 72.84375 -196.421875 L 72.84375 -357.625 L 124.109375 -357.625 L 124.109375 0 L 72.84375 0 L 72.84375 -159.875 L 58.109375 -159.875 L 58.109375 0 Z M 6.84375 0 "/></g></g></g><g fill="#f4a6be" fill-opacity="1"><g transform="translate(157.327828, 916.865274)"><g><path d="M 2.90625 0 L 2.90625 -37 L 14 -37 C 19.8125 -37 22.71875 -40.171875 22.71875 -46.515625 L 22.71875 -359.375 L 75.046875 -359.375 L 75.046875 -43.59375 C 75.046875 -14.53125 61.039062 0 33.03125 0 Z M 2.90625 0 "/></g></g></g><g fill="#f4a6be" fill-opacity="1"><g transform="translate(259.548429, 916.865274)"><g><path d="M 65.53125 4.75 C 26.25 4.75 6.609375 -10.132812 6.609375 -39.90625 L 6.609375 -359.375 L 58.40625 -359.375 L 58.40625 -45.453125 C 58.40625 -38.578125 60.867188 -35.140625 65.796875 -35.140625 C 70.734375 -35.140625 73.203125 -38.578125 73.203125 -45.453125 L 73.203125 -359.375 L 124.734375 -359.375 L 124.734375 -39.90625 C 124.734375 -10.132812 105 4.75 65.53125 4.75 Z M 65.53125 4.75 "/></g></g></g><g fill="#f4a6be" fill-opacity="1"><g transform="translate(411.44907, 916.865274)"><g><path d="M 6.875 0 L 6.875 -359.375 L 59.453125 -359.375 L 59.453125 -38.84375 L 88.78125 -38.84375 L 88.78125 0 Z M 6.875 0 "/></g></g></g><g fill="#f4a6be" fill-opacity="1"><g transform="translate(524.504164, 916.865274)"><g><path d="M 38.046875 0 L 38.046875 -112.3125 L 2.109375 -359.375 L 55.234375 -359.375 L 62.890625 -176.25 L 65.265625 -176.25 L 72.140625 -359.375 L 126.046875 -359.375 L 90.640625 -112.578125 L 90.640625 0 Z M 38.046875 0 "/></g></g></g><g fill="#fff8e9" fill-opacity="1"><g transform="translate(176.662173, 540.415698)"><g><path d="M 38.933594 -2.191406 C 49.972656 -2.117188 58.382812 -3.582031 64.164062 -6.578125 C 66.8125 -7.949219 68.773438 -9.601562 70.042969 -11.527344 C 71.269531 -13.390625 71.882812 -15.578125 71.882812 -18.089844 C 71.882812 -20.457031 71.253906 -22.367188 69.996094 -23.8125 C 68.542969 -25.488281 66.601562 -26.859375 64.164062 -27.929688 C 61.519531 -29.09375 58.597656 -29.996094 55.394531 -30.636719 C 52.066406 -31.304688 48.753906 -31.820312 45.464844 -32.191406 L 36.140625 -33.214844 C 33.15625 -33.53125 30.71875 -33.9375 28.828125 -34.429688 C 27.558594 -34.761719 26.542969 -35.226562 25.78125 -35.820312 C 24.578125 -36.761719 23.980469 -37.945312 23.980469 -39.367188 C 23.980469 -40.871094 24.59375 -42.132812 25.824219 -43.15625 C 26.664062 -43.859375 27.800781 -44.40625 29.238281 -44.808594 C 31.550781 -45.449219 34.734375 -45.769531 38.800781 -45.769531 C 42.566406 -45.769531 45.820312 -45.148438 48.5625 -43.910156 C 51.558594 -42.558594 53.710938 -40.578125 55.011719 -37.972656 L 52.339844 -36.636719 L 51.65625 -39.546875 L 72.023438 -44.324219 L 72.707031 -41.417969 L 69.976562 -40.207031 C 67.921875 -44.847656 64.28125 -48.433594 59.0625 -50.960938 C 53.59375 -53.605469 46.839844 -54.929688 38.800781 -54.929688 C 27.839844 -54.929688 19.445312 -53.394531 13.625 -50.324219 C 10.945312 -48.910156 8.964844 -47.238281 7.679688 -45.300781 C 6.449219 -43.4375 5.832031 -41.273438 5.832031 -38.800781 C 5.832031 -36.445312 6.453125 -34.5625 7.699219 -33.15625 C 9.144531 -31.519531 11.085938 -30.183594 13.519531 -29.144531 C 16.164062 -28.015625 19.085938 -27.148438 22.285156 -26.546875 C 25.628906 -25.914062 28.949219 -25.414062 32.25 -25.042969 L 41.570312 -24.019531 C 44.597656 -23.695312 47.074219 -23.242188 49 -22.65625 C 50.277344 -22.265625 51.296875 -21.742188 52.054688 -21.085938 C 53.171875 -20.109375 53.734375 -18.921875 53.734375 -17.523438 C 53.734375 -15.023438 51.980469 -13.285156 48.472656 -12.3125 C 46.164062 -11.671875 42.976562 -11.351562 38.914062 -11.351562 C 30.820312 -11.351562 25.429688 -13.84375 22.742188 -18.835938 L 25.375 -20.253906 L 26.054688 -17.34375 L 5.6875 -12.566406 L 5.007812 -15.472656 L 7.714844 -16.730469 C 9.84375 -12.140625 13.511719 -8.578125 18.714844 -6.042969 C 24.136719 -3.402344 30.859375 -2.117188 38.886719 -2.191406 Z M 38.941406 3.785156 C 29.976562 3.863281 22.363281 2.378906 16.101562 -0.671875 C 9.625 -3.824219 5.023438 -8.339844 2.296875 -14.21875 L 0.753906 -17.542969 L 26.917969 -23.683594 L 28.003906 -21.667969 C 29.5625 -18.773438 33.199219 -17.324219 38.914062 -17.324219 C 42.433594 -17.324219 45.089844 -17.570312 46.875 -18.066406 C 47.53125 -18.25 47.964844 -18.421875 48.171875 -18.578125 C 48.113281 -18.53125 48.042969 -18.445312 47.972656 -18.320312 C 47.832031 -18.078125 47.761719 -17.8125 47.761719 -17.523438 C 47.761719 -17.109375 47.882812 -16.792969 48.132812 -16.578125 C 48.015625 -16.675781 47.726562 -16.800781 47.261719 -16.941406 C 45.695312 -17.417969 43.582031 -17.796875 40.921875 -18.082031 L 31.582031 -19.105469 C 28.132812 -19.492188 24.664062 -20.015625 21.179688 -20.675781 C 17.550781 -21.359375 14.21875 -22.351562 11.171875 -23.648438 C 7.914062 -25.039062 5.265625 -26.890625 3.222656 -29.199219 C 0.980469 -31.734375 -0.140625 -34.9375 -0.140625 -38.800781 C -0.140625 -42.472656 0.804688 -45.738281 2.703125 -48.601562 C 4.546875 -51.386719 7.257812 -53.722656 10.839844 -55.609375 C 17.53125 -59.136719 26.851562 -60.902344 38.800781 -60.902344 C 47.753906 -60.902344 55.375 -59.378906 61.664062 -56.335938 C 68.199219 -53.175781 72.792969 -48.605469 75.4375 -42.625 L 76.898438 -39.332031 L 50.722656 -33.191406 L 49.667969 -35.300781 C 49 -36.640625 47.8125 -37.695312 46.105469 -38.46875 C 44.144531 -39.351562 41.707031 -39.796875 38.800781 -39.796875 C 35.277344 -39.796875 32.625 -39.546875 30.839844 -39.050781 C 30.226562 -38.882812 29.828125 -38.71875 29.648438 -38.566406 C 29.851562 -38.738281 29.953125 -39.003906 29.953125 -39.367188 C 29.953125 -39.882812 29.789062 -40.269531 29.460938 -40.527344 C 29.574219 -40.441406 29.863281 -40.335938 30.335938 -40.210938 C 31.9375 -39.792969 34.089844 -39.441406 36.792969 -39.152344 L 46.132812 -38.128906 C 49.589844 -37.738281 53.070312 -37.195312 56.566406 -36.496094 C 60.195312 -35.769531 63.527344 -34.738281 66.570312 -33.398438 C 69.824219 -31.96875 72.46875 -30.078125 74.507812 -27.730469 C 76.738281 -25.15625 77.855469 -21.945312 77.855469 -18.089844 C 77.855469 -14.382812 76.914062 -11.101562 75.03125 -8.242188 C 73.191406 -5.445312 70.484375 -3.125 66.914062 -1.273438 C 60.257812 2.175781 50.917969 3.863281 38.894531 3.785156 Z M 38.941406 3.785156 "/></g></g></g><g fill="#fff8e9" fill-opacity="1"><g transform="translate(257.482351, 540.415698)"><g><path d="M 4.664062 -59.878906 L 32.910156 -59.878906 L 32.910156 -27.082031 C 32.910156 -24.449219 33.429688 -22.5 34.460938 -21.226562 C 35.34375 -20.140625 36.675781 -19.597656 38.457031 -19.597656 C 40.242188 -19.597656 41.574219 -20.140625 42.457031 -21.226562 C 43.488281 -22.5 44.003906 -24.449219 44.003906 -27.082031 L 44.003906 -59.878906 L 75.125 -59.878906 L 75.125 -27.082031 C 75.125 -17.199219 71.847656 -9.515625 65.296875 -4.023438 C 58.898438 1.332031 49.953125 4.011719 38.457031 4.011719 C 26.96875 4.011719 18.003906 1.335938 11.574219 -4.019531 C 4.976562 -9.507812 1.679688 -17.195312 1.679688 -27.082031 L 1.679688 -59.878906 Z M 4.664062 -53.90625 L 4.664062 -56.890625 L 7.652344 -56.890625 L 7.652344 -27.082031 C 7.652344 -19.0625 10.234375 -12.90625 15.394531 -8.609375 C 20.71875 -4.179688 28.40625 -1.964844 38.457031 -1.964844 C 48.507812 -1.964844 56.171875 -4.175781 61.460938 -8.605469 C 66.585938 -12.902344 69.152344 -19.058594 69.152344 -27.082031 L 69.152344 -56.890625 L 72.136719 -56.890625 L 72.136719 -53.90625 L 46.992188 -53.90625 L 46.992188 -56.890625 L 49.980469 -56.890625 L 49.980469 -27.082031 C 49.980469 -23.035156 49.015625 -19.828125 47.09375 -17.460938 C 45.015625 -14.902344 42.136719 -13.625 38.457031 -13.625 C 34.78125 -13.625 31.902344 -14.902344 29.824219 -17.460938 C 27.902344 -19.828125 26.9375 -23.035156 26.9375 -27.082031 L 26.9375 -56.890625 L 29.925781 -56.890625 L 29.925781 -53.90625 Z M 4.664062 -53.90625 "/></g></g></g><g fill="#fff8e9" fill-opacity="1"><g transform="translate(336.254443, 540.415698)"><g><path d="M 1.679688 0 L 1.679688 -59.992188 L 27.601562 -59.992188 L 49.320312 -32.933594 L 46.992188 -31.0625 L 44.003906 -31.0625 L 44.003906 -59.878906 L 75.125 -59.878906 L 75.125 3.003906 L 49.191406 2.867188 L 27.589844 -24.191406 L 29.925781 -26.054688 L 32.910156 -26.054688 L 32.910156 2.988281 L 1.679688 2.988281 Z M 7.652344 0 L 4.664062 0 L 4.664062 -2.988281 L 29.925781 -2.988281 L 29.925781 0 L 26.9375 0 L 26.9375 -34.585938 L 52.96875 -1.976562 L 50.632812 -0.113281 L 50.648438 -3.101562 L 72.152344 -2.988281 L 72.136719 0 L 69.152344 0 L 69.152344 -56.890625 L 72.136719 -56.890625 L 72.136719 -53.90625 L 46.992188 -53.90625 L 46.992188 -56.890625 L 49.980469 -56.890625 L 49.980469 -22.570312 L 23.839844 -55.136719 L 26.171875 -57.003906 L 26.171875 -54.019531 L 4.664062 -54.019531 L 4.664062 -57.003906 L 7.652344 -57.003906 Z M 7.652344 0 "/></g></g></g><g fill="#fff8e9" fill-opacity="1"><g transform="translate(415.367869, 540.415698)"><g><path d="M 37.433594 -59.878906 C 49.21875 -59.878906 58.402344 -57.1875 64.984375 -51.808594 C 71.746094 -46.28125 75.125 -38.492188 75.125 -28.445312 C 75.125 -18.398438 71.746094 -10.613281 64.984375 -5.082031 C 58.402344 0.296875 49.21875 2.988281 37.433594 2.988281 L 1.679688 2.988281 L 1.679688 -59.878906 Z M 37.433594 -53.90625 L 4.664062 -53.90625 L 4.664062 -56.890625 L 7.652344 -56.890625 L 7.652344 0 L 4.664062 0 L 4.664062 -2.988281 L 37.433594 -2.988281 C 47.800781 -2.988281 55.722656 -5.226562 61.203125 -9.707031 C 66.5 -14.042969 69.152344 -20.289062 69.152344 -28.445312 C 69.152344 -36.605469 66.5 -42.851562 61.203125 -47.183594 C 55.722656 -51.664062 47.800781 -53.90625 37.433594 -53.90625 Z M 38.117188 -20.625 C 40.070312 -20.625 41.523438 -21.195312 42.484375 -22.339844 C 43.574219 -23.644531 44.121094 -25.679688 44.121094 -28.445312 C 44.121094 -31.210938 43.574219 -33.246094 42.484375 -34.550781 C 41.523438 -35.695312 40.070312 -36.269531 38.117188 -36.269531 L 29.925781 -36.269531 L 29.925781 -39.253906 L 32.910156 -39.253906 L 32.910156 -17.636719 L 29.925781 -17.636719 L 29.925781 -20.625 Z M 38.117188 -14.648438 L 26.9375 -14.648438 L 26.9375 -42.242188 L 38.117188 -42.242188 C 41.929688 -42.242188 44.914062 -40.957031 47.0625 -38.382812 C 49.082031 -35.972656 50.09375 -32.660156 50.09375 -28.445312 C 50.09375 -24.234375 49.082031 -20.921875 47.0625 -18.507812 C 44.914062 -15.933594 41.929688 -14.648438 38.117188 -14.648438 Z M 38.117188 -14.648438 "/></g></g></g><g fill="#fff8e9" fill-opacity="1"><g transform="translate(486.175167, 540.415698)"><g><path d="M 56.324219 -5.660156 L 29.46875 -5.660156 L 29.46875 -8.648438 L 32.140625 -7.3125 L 26.992188 2.988281 L -4.125 2.988281 L 28.566406 -59.878906 L 57.464844 -59.878906 L 89.652344 2.988281 L 58.664062 2.988281 L 53.636719 -7.339844 L 56.324219 -8.648438 Z M 58.191406 -11.632812 L 63.21875 -1.308594 L 60.53125 0 L 60.53125 -2.988281 L 84.769531 -2.988281 L 84.769531 0 L 82.109375 1.359375 L 52.980469 -55.53125 L 55.640625 -56.890625 L 55.640625 -53.90625 L 30.378906 -53.90625 L 30.378906 -56.890625 L 33.03125 -55.511719 L 3.445312 1.378906 L 0.796875 0 L 0.796875 -2.988281 L 25.144531 -2.988281 L 25.144531 0 L 22.472656 -1.335938 L 27.625 -11.632812 Z M 46.414062 -21.679688 L 40.269531 -35.785156 L 43.011719 -36.980469 L 45.730469 -35.75 L 39.359375 -21.640625 L 36.636719 -22.871094 L 36.636719 -25.855469 L 49.152344 -25.855469 L 49.152344 -22.871094 Z M 53.714844 -19.882812 L 32.011719 -19.882812 L 43.058594 -44.347656 L 51.894531 -24.0625 Z M 53.714844 -19.882812 "/></g></g></g><g fill="#fff8e9" fill-opacity="1"><g transform="translate(554.706764, 540.415698)"><g><path d="M 80.320312 -55.085938 L 54.605469 -21.179688 L 52.226562 -22.984375 L 55.214844 -22.984375 L 55.214844 2.988281 L 24.09375 2.988281 L 24.09375 -22.984375 L 27.082031 -22.984375 L 24.695312 -21.183594 L -4.519531 -59.878906 L 29.671875 -59.878906 L 42.167969 -41.746094 L 39.710938 -40.050781 L 37.242188 -41.734375 L 49.625 -59.878906 L 83.957031 -59.878906 Z M 75.5625 -58.695312 L 77.941406 -56.890625 L 77.941406 -53.90625 L 51.203125 -53.90625 L 51.203125 -56.890625 L 53.667969 -55.207031 L 39.722656 -34.769531 L 25.644531 -55.195312 L 28.105469 -56.890625 L 28.105469 -53.90625 L 1.480469 -53.90625 L 1.480469 -56.890625 L 3.863281 -58.691406 L 30.066406 -23.984375 L 30.066406 0 L 27.082031 0 L 27.082031 -2.988281 L 52.226562 -2.988281 L 52.226562 0 L 49.238281 0 L 49.238281 -23.988281 Z M 75.5625 -58.695312 "/></g></g></g><g fill="#c8242b" fill-opacity="1"><g transform="translate(176.662173, 540.415698)"><g><path d="M 38.90625 0.796875 C 50.4375 0.867188 59.3125 -0.703125 65.53125 -3.921875 C 71.75 -7.148438 74.859375 -11.875 74.859375 -18.09375 C 74.859375 -21.195312 73.984375 -23.753906 72.234375 -25.765625 C 70.492188 -27.773438 68.203125 -29.40625 65.359375 -30.65625 C 62.515625 -31.90625 59.382812 -32.875 55.96875 -33.5625 C 52.5625 -34.25 49.171875 -34.78125 45.796875 -35.15625 C 42.421875 -35.53125 39.3125 -35.867188 36.46875 -36.171875 C 33.625 -36.484375 31.328125 -36.863281 29.578125 -37.3125 C 27.835938 -37.769531 26.96875 -38.453125 26.96875 -39.359375 C 26.96875 -40.503906 27.988281 -41.359375 30.03125 -41.921875 C 32.082031 -42.492188 35.003906 -42.78125 38.796875 -42.78125 C 42.128906 -42.78125 44.972656 -42.25 47.328125 -41.1875 C 49.679688 -40.125 51.347656 -38.609375 52.328125 -36.640625 L 72.703125 -41.40625 C 70.347656 -46.71875 66.226562 -50.796875 60.34375 -53.640625 C 54.46875 -56.484375 47.285156 -57.90625 38.796875 -57.90625 C 27.335938 -57.90625 18.476562 -56.253906 12.21875 -52.953125 C 5.96875 -49.660156 2.84375 -44.941406 2.84375 -38.796875 C 2.84375 -35.679688 3.710938 -33.140625 5.453125 -31.171875 C 7.203125 -29.203125 9.5 -27.609375 12.34375 -26.390625 C 15.1875 -25.179688 18.3125 -24.253906 21.71875 -23.609375 C 25.132812 -22.960938 28.53125 -22.445312 31.90625 -22.0625 C 35.28125 -21.6875 38.390625 -21.347656 41.234375 -21.046875 C 44.085938 -20.742188 46.382812 -20.328125 48.125 -19.796875 C 49.875 -19.265625 50.75 -18.503906 50.75 -17.515625 C 50.75 -16.535156 49.722656 -15.757812 47.671875 -15.1875 C 45.617188 -14.613281 42.695312 -14.328125 38.90625 -14.328125 C 32.007812 -14.328125 27.5 -16.300781 25.375 -20.25 L 5 -15.46875 C 7.425781 -10.238281 11.5625 -6.203125 17.40625 -3.359375 C 23.25 -0.515625 30.414062 0.867188 38.90625 0.796875 Z M 38.90625 0.796875 "/></g></g></g><g fill="#c8242b" fill-opacity="1"><g transform="translate(257.482351, 540.415698)"><g><path d="M 4.671875 -56.890625 L 29.921875 -56.890625 L 29.921875 -27.078125 C 29.921875 -23.742188 30.660156 -21.164062 32.140625 -19.34375 C 33.617188 -17.519531 35.722656 -16.609375 38.453125 -16.609375 C 41.179688 -16.609375 43.285156 -17.519531 44.765625 -19.34375 C 46.242188 -21.164062 46.984375 -23.742188 46.984375 -27.078125 L 46.984375 -56.890625 L 72.125 -56.890625 L 72.125 -27.078125 C 72.125 -18.128906 69.203125 -11.207031 63.359375 -6.3125 C 57.523438 -1.414062 49.222656 1.03125 38.453125 1.03125 C 27.679688 1.03125 19.359375 -1.414062 13.484375 -6.3125 C 7.609375 -11.207031 4.671875 -18.128906 4.671875 -27.078125 Z M 4.671875 -56.890625 "/></g></g></g><g fill="#c8242b" fill-opacity="1"><g transform="translate(336.254443, 540.415698)"><g><path d="M 4.671875 0 L 4.671875 -57 L 26.171875 -57 L 46.984375 -31.0625 L 46.984375 -56.890625 L 72.125 -56.890625 L 72.125 0 L 50.625 -0.109375 L 29.921875 -26.046875 L 29.921875 0 Z M 4.671875 0 "/></g></g></g><g fill="#c8242b" fill-opacity="1"><g transform="translate(415.367869, 540.415698)"><g><path d="M 37.4375 -56.890625 C 48.507812 -56.890625 57.054688 -54.421875 63.078125 -49.484375 C 69.109375 -44.554688 72.125 -37.539062 72.125 -28.4375 C 72.125 -19.34375 69.109375 -12.328125 63.078125 -7.390625 C 57.054688 -2.460938 48.507812 0 37.4375 0 L 4.671875 0 L 4.671875 -56.890625 Z M 38.109375 -17.640625 C 40.992188 -17.640625 43.210938 -18.566406 44.765625 -20.421875 C 46.328125 -22.273438 47.109375 -24.945312 47.109375 -28.4375 C 47.109375 -31.925781 46.328125 -34.597656 44.765625 -36.453125 C 43.210938 -38.316406 40.992188 -39.25 38.109375 -39.25 L 29.921875 -39.25 L 29.921875 -17.640625 Z M 38.109375 -17.640625 "/></g></g></g><g fill="#c8242b" fill-opacity="1"><g transform="translate(486.175167, 540.415698)"><g><path d="M 56.3125 -8.640625 L 29.46875 -8.640625 L 25.140625 0 L 0.796875 0 L 30.375 -56.890625 L 55.640625 -56.890625 L 84.765625 0 L 60.53125 0 Z M 49.15625 -22.875 L 43 -36.96875 L 36.640625 -22.875 Z M 49.15625 -22.875 "/></g></g></g><g fill="#c8242b" fill-opacity="1"><g transform="translate(554.706764, 540.415698)"><g><path d="M 77.9375 -56.890625 L 52.21875 -22.984375 L 52.21875 0 L 27.078125 0 L 27.078125 -22.984375 L 1.484375 -56.890625 L 28.109375 -56.890625 L 39.703125 -40.046875 L 51.203125 -56.890625 Z M 77.9375 -56.890625 "/></g></g></g></svg>